<?xml version="1.0" encoding="UTF-8" standalone="no"?>
<!-- Created with Inkscape (http://www.inkscape.org/) -->

<svg
   width="67.665733mm"
   height="18.742708mm"
   viewBox="0 0 67.665733 18.742708"
   version="1.1"
   id="svg5"
   xml:space="preserve"
   inkscape:version="1.2.2 (b0a8486541, 2022-12-01)"
   sodipodi:docname="logo.svg"
   xmlns:inkscape="http://www.inkscape.org/namespaces/inkscape"
   xmlns:sodipodi="http://sodipodi.sourceforge.net/DTD/sodipodi-0.dtd"
   xmlns="http://www.w3.org/2000/svg"
   xmlns:svg="http://www.w3.org/2000/svg"><sodipodi:namedview
     id="namedview7"
     pagecolor="#505050"
     bordercolor="#ffffff"
     borderopacity="1"
     inkscape:showpageshadow="0"
     inkscape:pageopacity="0"
     inkscape:pagecheckerboard="1"
     inkscape:deskcolor="#505050"
     inkscape:document-units="mm"
     showgrid="false"
     inkscape:zoom="2.9647587"
     inkscape:cx="145.37439"
     inkscape:cy="23.442043"
     inkscape:window-width="1920"
     inkscape:window-height="1011"
     inkscape:window-x="0"
     inkscape:window-y="32"
     inkscape:window-maximized="1"
     inkscape:current-layer="layer1" /><defs
     id="defs2" /><g
     inkscape:label="Layer 1"
     inkscape:groupmode="layer"
     id="layer1"
     transform="translate(-29.585686,-44.31068)"><rect
       style="fill:#ffffff;fill-opacity:1;stroke:none;stroke-width:0.529167;stroke-linecap:round;stroke-dasharray:none;stroke-dashoffset:0"
       id="rect6629"
       width="67.665733"
       height="18.742708"
       x="29.585686"
       y="44.31068"
       rx="1.3229166"
       ry="1.3229166" /><g
       aria-label="datavzrd"
       id="text113"
       style="font-size:10.5833px;line-height:1.25;stroke-width:0.264583"><path
         d="m 52.193419,52.44234 v -3.100576 h 1.860346 v 8.040827 h -1.860346 v -0.837155 q -0.382404,0.511595 -0.842323,0.749306 -0.459919,0.23771 -1.064531,0.23771 -1.069699,0 -1.756993,-0.84749 -0.687295,-0.852659 -0.687295,-2.191074 0,-1.338415 0.687295,-2.185906 0.687294,-0.852659 1.756993,-0.852659 0.599444,0 1.059363,0.242879 0.465087,0.237711 0.847491,0.744138 z m -1.21956,3.746529 q 0.594277,0 0.904335,-0.43408 0.315225,-0.434081 0.315225,-1.260901 0,-0.82682 -0.315225,-1.260901 -0.310058,-0.434081 -0.904335,-0.434081 -0.589109,0 -0.904335,0.434081 -0.310057,0.434081 -0.310057,1.260901 0,0.82682 0.310057,1.260901 0.315226,0.43408 0.904335,0.43408 z"
         style="font-weight:bold;font-family:'DejaVu Sans';-inkscape-font-specification:'DejaVu Sans Bold'"
         id="path455" /><path
         d="m 58.425577,54.778107 q -0.578774,0 -0.873329,0.19637 -0.289387,0.19637 -0.289387,0.578774 0,0.351399 0.232543,0.552936 0.237711,0.19637 0.656289,0.19637 0.52193,0 0.878496,-0.372069 0.356566,-0.377237 0.356566,-0.940508 v -0.211873 z m 2.826692,-0.697629 v 3.302113 h -1.865514 v -0.857826 q -0.372069,0.527098 -0.837155,0.769977 -0.465086,0.23771 -1.13171,0.23771 -0.899167,0 -1.462439,-0.52193 -0.558103,-0.527098 -0.558103,-1.364253 0,-1.018023 0.697629,-1.493444 0.702797,-0.475422 2.201409,-0.475422 h 1.090369 v -0.144694 q 0,-0.439248 -0.346231,-0.640785 -0.346231,-0.206705 -1.080034,-0.206705 -0.594277,0 -1.105872,0.118855 -0.511595,0.118855 -0.950843,0.356566 v -1.410762 q 0.594277,-0.144693 1.193722,-0.21704 0.599445,-0.07751 1.198889,-0.07751 1.565791,0 2.258253,0.620116 0.69763,0.614947 0.69763,2.005039 z"
         style="font-weight:bold;font-family:'DejaVu Sans';-inkscape-font-specification:'DejaVu Sans Bold'"
         id="path457" /><path
         d="m 64.993631,49.951544 v 1.643305 h 1.906854 v 1.322913 h -1.906854 v 2.454622 q 0,0.403075 0.160196,0.547769 0.160197,0.139526 0.635619,0.139526 h 0.950843 v 1.322912 h -1.586462 q -1.095536,0 -1.555455,-0.454751 -0.454751,-0.459919 -0.454751,-1.555456 v -2.454622 h -0.919838 v -1.322913 h 0.919838 v -1.643305 z"
         style="font-weight:bold;font-family:'DejaVu Sans';-inkscape-font-specification:'DejaVu Sans Bold'"
         id="path459" /><path
         d="m 70.626344,54.778107 q -0.578774,0 -0.873329,0.19637 -0.289387,0.19637 -0.289387,0.578774 0,0.351399 0.232544,0.552936 0.23771,0.19637 0.656288,0.19637 0.52193,0 0.878497,-0.372069 0.356566,-0.377237 0.356566,-0.940508 v -0.211873 z m 2.826692,-0.697629 v 3.302113 h -1.865513 v -0.857826 q -0.372069,0.527098 -0.837156,0.769977 -0.465086,0.23771 -1.13171,0.23771 -0.899167,0 -1.462438,-0.52193 -0.558104,-0.527098 -0.558104,-1.364253 0,-1.018023 0.69763,-1.493444 0.702797,-0.475422 2.201409,-0.475422 h 1.090369 v -0.144694 q 0,-0.439248 -0.346231,-0.640785 -0.346231,-0.206705 -1.080034,-0.206705 -0.594277,0 -1.105872,0.118855 -0.511595,0.118855 -0.950843,0.356566 v -1.410762 q 0.594277,-0.144693 1.193721,-0.21704 0.599445,-0.07751 1.19889,-0.07751 1.565791,0 2.258253,0.620116 0.697629,0.614947 0.697629,2.005039 z"
         style="font-weight:bold;font-family:'DejaVu Sans';-inkscape-font-specification:'DejaVu Sans Bold'"
         id="path461" /><path
         d="m 74.600248,51.594849 h 1.007687 l 1.80867,4.857569 1.808669,-4.857569 h 1.007687 l -2.170403,5.787742 h -1.291907 z"
         style="font-family:'DejaVu Sans';-inkscape-font-specification:'DejaVu Sans'"
         id="path463" /><path
         d="m 81.132129,51.594849 h 4.516506 v 0.868162 l -3.575998,4.159939 h 3.575998 v 0.759641 H 81.002938 V 56.51443 l 3.575998,-4.15994 h -3.446807 z"
         style="font-family:'DejaVu Sans';-inkscape-font-specification:'DejaVu Sans'"
         id="path465" /><path
         d="m 90.454528,52.483681 q -0.160197,-0.09302 -0.351399,-0.134358 -0.186035,-0.04651 -0.41341,-0.04651 -0.80615,0 -1.240231,0.527098 -0.428913,0.52193 -0.428913,1.503779 v 3.0489 h -0.95601 v -5.787742 h 0.95601 v 0.899167 q 0.299723,-0.527098 0.780312,-0.780311 0.480589,-0.258382 1.167884,-0.258382 0.09819,0 0.21704,0.0155 0.118855,0.01033 0.263549,0.03617 z"
         style="font-family:'DejaVu Sans';-inkscape-font-specification:'DejaVu Sans'"
         id="path467" /><path
         d="m 95.074387,52.473346 v -3.131582 h 0.950843 v 8.040827 H 95.074387 V 56.51443 q -0.299723,0.516763 -0.759642,0.769976 -0.454751,0.248046 -1.095536,0.248046 -1.049029,0 -1.710485,-0.837155 -0.656289,-0.837156 -0.656289,-2.201409 0,-1.364254 0.656289,-2.201409 0.661456,-0.837156 1.710485,-0.837156 0.640785,0 1.095536,0.253214 0.459919,0.248046 0.759642,0.764809 z m -3.240102,2.020542 q 0,1.049028 0.428913,1.648473 0.43408,0.594277 1.188554,0.594277 0.754473,0 1.188554,-0.594277 0.434081,-0.599445 0.434081,-1.648473 0,-1.049028 -0.434081,-1.643305 -0.434081,-0.599445 -1.188554,-0.599445 -0.754474,0 -1.188554,0.599445 -0.428913,0.594277 -0.428913,1.643305 z"
         style="font-family:'DejaVu Sans';-inkscape-font-specification:'DejaVu Sans'"
         id="path469" /></g><g
       style="fill:none;stroke:currentColor;stroke-width:2;stroke-linecap:round;stroke-linejoin:round"
       id="g174"
       transform="matrix(0.26458333,0,0,0.26458333,41.39965,53.50923)"><line
         x1="18"
         y1="20"
         x2="18"
         y2="10"
         id="line159" /><line
         x1="12"
         y1="20"
         x2="12"
         y2="4"
         id="line161" /><line
         x1="6"
         y1="20"
         x2="6"
         y2="14"
         id="line163" /></g><g
       style="fill:none;stroke:currentColor;stroke-width:2;stroke-linecap:round;stroke-linejoin:round"
       id="g279"
       transform="matrix(0.26458333,0,0,0.26458333,33.864746,43.957266)"><path
         d="M 5,5 H 0.99999997 A 2,2 0 0 0 -1.0000001,7 v 4 M 5,5 h 10 a 2,2 0 0 1 2,2 v 4 M 5,5 v 18 m 0,0 h 10 a 2,2 0 0 0 2,-2 V 11 M 5,23 H 0.99999997 A 2,2 0 0 1 -1.0000001,21 V 11 m 0,0 H 17"
         id="path270" /></g><g
       style="fill:none;stroke:currentColor;stroke-width:2;stroke-linecap:round;stroke-linejoin:round"
       id="g340"
       transform="matrix(0.26458333,0,0,0.26458333,29.415083,55.205573)"><line
         x1="12"
         y1="20"
         x2="12"
         y2="10"
         id="line325" /><line
         x1="18"
         y1="20"
         x2="18"
         y2="4"
         id="line327" /><line
         x1="6"
         y1="20"
         x2="6"
         y2="16"
         id="line329" /></g><path
       id="path1285"
       style="fill:none;stroke:#000000;stroke-width:0.529167;stroke-linecap:round"
       d="m 31.349198,57.170087 c -0.375866,-0.888674 -0.583712,-1.86572 -0.583712,-2.891313 m 0,0 c 0,-1.025593 0.207846,-2.002639 0.583712,-2.891313 0.29122,-0.675919 0.700755,-1.293673 1.192204,-1.841036 m 7.203882,-2.449265 c 0.4952,0.122882 0.967183,0.285334 1.412711,0.483814 0.891057,0.39696 1.676298,0.938025 2.329818,1.594838 0.65352,0.656813 1.17532,1.429372 1.539496,2.289319 0.364177,0.859947 0.570729,1.807281 0.593756,2.813643 m -2.175549,5.252389 c -1.344166,1.344204 -3.201114,2.175611 -5.252241,2.175611 m 0,0 c -1.025564,0 -2.002582,-0.207852 -2.891231,-0.583729"
       sodipodi:nodetypes="ccccccsssccccc" /></g></svg>
