<?xml version="1.0" encoding="UTF-8" standalone="no"?>
<!-- Created with Inkscape (http://www.inkscape.org/) -->

<svg
   width="67.665733mm"
   height="18.742708mm"
   viewBox="0 0 67.665733 18.742708"
   version="1.1"
   id="svg5"
   xml:space="preserve"
   inkscape:version="1.2.2 (b0a8486541, 2022-12-01)"
   sodipodi:docname="logo.svg"
   xmlns:inkscape="http://www.inkscape.org/namespaces/inkscape"
   xmlns:sodipodi="http://sodipodi.sourceforge.net/DTD/sodipodi-0.dtd"
   xmlns="http://www.w3.org/2000/svg"
   xmlns:svg="http://www.w3.org/2000/svg"><sodipodi:namedview
     id="namedview7"
     pagecolor="#505050"
     bordercolor="#ffffff"
     borderopacity="1"
     inkscape:showpageshadow="0"
     inkscape:pageopacity="0"
     inkscape:pagecheckerboard="1"
     inkscape:deskcolor="#505050"
     inkscape:document-units="mm"
     showgrid="false"
     inkscape:zoom="2.9647587"
     inkscape:cx="145.37439"
     inkscape:cy="23.442043"
     inkscape:window-width="1920"
     inkscape:window-height="1011"
     inkscape:window-x="0"
     inkscape:window-y="32"
     inkscape:window-maximized="1"
     inkscape:current-layer="layer1" /><defs
     id="defs2" /><g
     inkscape:label="Layer 1"
     inkscape:groupmode="layer"
     id="layer1"
     transform="translate(-29.585686,-44.31068)"><rect
       style="fill:#ffffff;fill-opacity:1;stroke:none;stroke-width:0.529167;stroke-linecap:round;stroke-dasharray:none;stroke-dashoffset:0"
       id="rect6629"
       width="67.665733"
       height="18.742708"
       x="29.585686"
       y="44.31068"
       rx="1.3229166"
       ry="1.3229166" /><text
       xml:space="preserve"
       style="font-style:normal;font-weight:normal;font-size:10.5833px;line-height:1.25;font-family:sans-serif;fill:#000000;fill-opacity:1;stroke:none;stroke-width:0.264583"
       x="47.366856"
       y="57.382591"
       id="text113"><tspan
         sodipodi:role="line"
         id="tspan111"
         style="font-style:normal;font-variant:normal;font-weight:normal;font-stretch:normal;font-family:'DejaVu Sans';-inkscape-font-specification:'DejaVu Sans';stroke-width:0.264583"
         x="47.366856"
         y="57.382591"><tspan
   style="font-style:normal;font-variant:normal;font-weight:bold;font-stretch:normal;font-family:'DejaVu Sans';-inkscape-font-specification:'DejaVu Sans Bold'"
   id="tspan2893">data</tspan>vzrd</tspan></text><g
       style="fill:none;stroke:currentColor;stroke-width:2;stroke-linecap:round;stroke-linejoin:round"
       id="g174"
       transform="matrix(0.26458333,0,0,0.26458333,41.39965,53.50923)"><line
         x1="18"
         y1="20"
         x2="18"
         y2="10"
         id="line159" /><line
         x1="12"
         y1="20"
         x2="12"
         y2="4"
         id="line161" /><line
         x1="6"
         y1="20"
         x2="6"
         y2="14"
         id="line163" /></g><g
       style="fill:none;stroke:currentColor;stroke-width:2;stroke-linecap:round;stroke-linejoin:round"
       id="g279"
       transform="matrix(0.26458333,0,0,0.26458333,33.864746,43.957266)"><path
         d="M 5,5 H 0.99999997 A 2,2 0 0 0 -1.0000001,7 v 4 M 5,5 h 10 a 2,2 0 0 1 2,2 v 4 M 5,5 v 18 m 0,0 h 10 a 2,2 0 0 0 2,-2 V 11 M 5,23 H 0.99999997 A 2,2 0 0 1 -1.0000001,21 V 11 m 0,0 H 17"
         id="path270" /></g><g
       style="fill:none;stroke:currentColor;stroke-width:2;stroke-linecap:round;stroke-linejoin:round"
       id="g340"
       transform="matrix(0.26458333,0,0,0.26458333,29.415083,55.205573)"><line
         x1="12"
         y1="20"
         x2="12"
         y2="10"
         id="line325" /><line
         x1="18"
         y1="20"
         x2="18"
         y2="4"
         id="line327" /><line
         x1="6"
         y1="20"
         x2="6"
         y2="16"
         id="line329" /></g><path
       id="path1285"
       style="fill:none;stroke:#000000;stroke-width:0.529167;stroke-linecap:round"
       d="m 31.349198,57.170087 c -0.375866,-0.888674 -0.583712,-1.86572 -0.583712,-2.891313 m 0,0 c 0,-1.025593 0.207846,-2.002639 0.583712,-2.891313 0.29122,-0.675919 0.700755,-1.293673 1.192204,-1.841036 m 7.203882,-2.449265 c 0.4952,0.122882 0.967183,0.285334 1.412711,0.483814 0.891057,0.39696 1.676298,0.938025 2.329818,1.594838 0.65352,0.656813 1.17532,1.429372 1.539496,2.289319 0.364177,0.859947 0.570729,1.807281 0.593756,2.813643 m -2.175549,5.252389 c -1.344166,1.344204 -3.201114,2.175611 -5.252241,2.175611 m 0,0 c -1.025564,0 -2.002582,-0.207852 -2.891231,-0.583729"
       sodipodi:nodetypes="ccccccsssccccc" /></g></svg>
